<svg width="115" height="155" viewBox="0 0 115 155" fill="none" xmlns="http://www.w3.org/2000/svg">
<path d="M65.12 109.4C66.1467 111.013 67.1 112.187 67.98 112.92C68.9333 113.653 70.07 114.02 71.39 114.02C72.49 114.02 73.7733 113.763 75.24 113.25V116H48.73V113.25C50.1967 113.69 51.48 113.91 52.58 113.91C53.8267 113.91 54.8167 113.69 55.55 113.25C56.3567 112.737 56.76 112.077 56.76 111.27C56.76 110.683 56.54 110.06 56.1 109.4L31.02 68.81L20.9 79.81V109.4C20.9 110.867 21.2667 112.003 22 112.81C22.8067 113.543 23.9067 113.91 25.3 113.91C26.4733 113.91 27.7567 113.69 29.15 113.25V116H4.4V113.25C5.79333 113.69 7.07667 113.91 8.25 113.91C9.64333 113.91 10.7067 113.543 11.44 112.81C12.2467 112.003 12.65 110.867 12.65 109.4V41.2C12.65 39.7333 12.2467 38.6333 11.44 37.9C10.7067 37.0933 9.64333 36.69 8.25 36.69C7.07667 36.69 5.79333 36.91 4.4 37.35V34.6H29.15V37.35C27.7567 36.91 26.4733 36.69 25.3 36.69C23.9067 36.69 22.8067 37.0933 22 37.9C21.2667 38.6333 20.9 39.7333 20.9 41.2V76.73L52.36 41.2C53.02 40.3933 53.35 39.6967 53.35 39.11C53.35 38.3767 53.0567 37.79 52.47 37.35C51.8833 36.91 51.0767 36.69 50.05 36.69C49.0967 36.69 48.0333 36.91 46.86 37.35V34.6H68.97V37.35C67.7233 36.9833 66.6233 36.8 65.67 36.8C64.13 36.8 62.59 37.1667 61.05 37.9C59.51 38.56 58.1167 39.5133 56.87 40.76L36.85 62.43L65.12 109.4Z" fill="#E9BC94"/>
<path d="M106.641 112.44C107.056 113.983 108.124 114.754 109.845 114.754C110.972 114.754 112.456 114.428 114.295 113.775V116H92.846V113.775C94.5667 114.368 96.05 114.665 97.296 114.665C98.72 114.665 99.432 114.161 99.432 113.152C99.432 112.855 99.4023 112.618 99.343 112.44L91.333 87.075H72.465C70.329 94.195 68.282 101.315 66.324 108.435L65.701 110.66C65.5823 111.016 65.523 111.461 65.523 111.995C65.523 113.716 66.591 114.576 68.727 114.576C69.9137 114.576 71.2783 114.309 72.821 113.775V116H54.22V113.775C55.644 114.309 57.0087 114.576 58.314 114.576C60.094 114.576 61.3697 113.864 62.141 112.44C62.5563 111.609 62.9123 110.749 63.209 109.859L82.077 48.36H87.239L106.641 112.44ZM72.91 85.473H90.799L81.543 56.281L72.91 85.473Z" fill="#E9BC94"/>
</svg>
